<?xml version="1.0" encoding="utf-8"?>
<!-- Generator: Adobe Illustrator 24.1.1, SVG Export Plug-In . SVG Version: 6.00 Build 0)  -->
<svg version="1.1" id="Layer_1" xmlns="http://www.w3.org/2000/svg" xmlns:xlink="http://www.w3.org/1999/xlink" x="0px" y="0px"
	 width="460px" height="280px" viewBox="0 0 460 280" style="enable-background:new 0 0 460 280;" xml:space="preserve">
<style type="text/css">
	.st0{fill:#83B1CC;}
	.st1{fill:#FFFFFF;}
	.st2{fill:#BC3728;}
	.st3{fill:#BD3929;}
</style>
<g>
	<g>
		<path class="st0" d="M107.6,178.3c-9.3-17.5,40.5-62.3,111.3-100.1C289.7,40.4,354.7,23.9,364,41.4
			c9.3,17.5-40.5,62.3-111.3,100.1C181.9,179.2,116.9,195.7,107.6,178.3z M243.8,165.5C351.4,108,427.4,40.5,413.6,14.6
			c-13.8-25.9-112.3-0.3-219.8,57.1C86.1,129.2,10.1,196.7,24,222.6C37.8,248.5,136.2,222.9,243.8,165.5z"/>
		<path class="st1" d="M33.6,59.8v-34h-9.4v11.6h-5.6V20h36.8v17.3h-5.6V25.7h-9.3v34h5.9v5.7H27.8v-5.7H33.6z M63.1,59.8v-34H58V20
			h17.4v5.7H70v13h19.7v-13h-5.3V20h17.4v5.7h-5.2v34h5.2v5.7H84.4v-5.7h5.3V44.4H70v15.4h5.4v5.7H58v-5.7H63.1z M111.2,59.8v-34
			h-5.9V20h37.7v13.7h-5.6v-8h-19.4v13.5h16.9v5.7h-16.9v14.8h19.4v-8.3h5.6v13.9h-37.7v-5.7H111.2z M278.6,196.2h13.9
			c0,0.6,0,1.1,0,1.6c0,6.4-1.8,11.5-5.3,15.3c-3.5,3.8-8.2,5.7-13.9,5.7c-6.9,0-12.1-2.3-15.4-7c-3.4-4.7-5.1-10.2-5.1-16.6
			c0-6.7,1.7-12.2,5.2-16.6c3.5-4.4,8.2-6.6,14.1-6.6c5.3,0,9.8,1.9,13.4,5.8v-5.1h4.9v14.9h-4.9c-0.9-2.5-2.5-4.7-4.9-6.7
			c-2.3-1.9-5-2.9-8-2.9c-4.2,0-7.5,1.7-9.9,5c-2.4,3.4-3.6,7.4-3.6,12.1c0,5.4,1.4,9.7,4.1,12.9c2.8,3.2,6.1,4.8,10,4.8
			c3,0,5.8-1,8.1-3c2.4-2,3.8-4.7,4.2-7.9h-6.9V196.2z M301.2,212.4v-34h-5.2v-5.7h15.5c3.2,0,5.8,0.3,7.7,0.9
			c1.9,0.6,3.5,1.9,4.7,3.8c1.2,1.9,1.9,4.3,1.9,7.2c0,6-2.6,9.8-7.9,11.3l6.8,16.5h4.7v5.7H321l-8.7-21.2h-5.4v15.5h4.9v5.7h-15.9
			v-5.7H301.2z M306.9,191.2h4.5c2.2,0,3.8-0.2,4.8-0.5c1-0.3,1.9-1,2.5-2.1s1-2.4,1-4.2c0-1.5-0.3-2.7-1-3.8
			c-0.7-1-1.5-1.7-2.5-1.9c-1-0.3-2.5-0.4-4.5-0.4h-4.9V191.2z M330.9,195.2c0-6.6,1.8-12.1,5.4-16.5s8.4-6.7,14.2-6.7
			c5.9,0,10.7,2.2,14.4,6.7c3.7,4.4,5.6,10,5.6,16.7c0,6.8-1.9,12.4-5.6,16.9c-3.8,4.4-8.5,6.6-14.4,6.6c-3.7,0-7.1-1-10.2-3.1
			c-3.1-2.1-5.4-5-7-8.8C331.6,203.2,330.9,199.3,330.9,195.2z M337.2,195.2c0,5,1.2,9.2,3.7,12.5c2.5,3.4,5.7,5.1,9.7,5.1
			c4,0,7.2-1.7,9.8-5.2c2.5-3.4,3.8-7.6,3.8-12.4c0-4.8-1.3-8.9-3.9-12.3c-2.6-3.3-5.8-5-9.8-5c-3.9,0-7.1,1.6-9.6,4.9
			C338.4,186.3,337.2,190.3,337.2,195.2z M384.4,178.4v22.7c0,3.5,0.2,6,0.5,7.3c0.3,1.3,1.1,2.5,2.3,3.4c1.2,0.9,2.8,1.4,4.7,1.4
			c2.3,0,4-0.4,5.2-1.2c1.2-0.8,2-1.9,2.4-3.3s0.6-3.8,0.6-7.3v-23h-4.4v-5.7h14.9v5.7h-4.8v23.7c0,3.2-0.1,5.5-0.3,7
			c-0.2,1.4-0.8,3-1.9,4.5c-1,1.6-2.4,2.8-4.3,3.8c-1.8,0.9-4.1,1.4-6.7,1.4c-2.9,0-5.3-0.4-7.2-1.3c-1.9-0.9-3.4-2.1-4.3-3.5
			s-1.6-3.1-1.9-4.7c-0.3-1.7-0.5-4.3-0.5-7.8v-23h-4.7v-5.7h15v5.7H384.4z M417.2,212.4v-34h-4.8v-5.7H426c4,0,7,0.3,9,1
			c2,0.7,3.7,2.2,5,4.6c1.3,2.4,2,5.2,2,8.4c0,2.6-0.4,4.9-1.3,7c-0.9,2.1-2,3.6-3.3,4.6c-1.3,1-2.8,1.6-4.4,2
			c-1.6,0.3-4.1,0.5-7.4,0.5H423v11.7h4.9v5.7h-15.5v-5.7H417.2z M423,195.3h3.3c3.8,0,6.4-0.6,7.8-1.9c1.4-1.3,2.2-3.5,2.2-6.7
			c0-2-0.4-3.7-1.2-5.1c-0.8-1.3-1.7-2.2-2.9-2.6c-1.1-0.4-3-0.6-5.7-0.6H423V195.3z M43.8,151.7v15.9H13.5v-15.9h7.3V89.5h-7.3
			V73.6h30.3c7.1,0,12.5,2.7,16.3,8.1c3.8,5.4,5.8,12.7,5.8,21.8c0,5.2-0.7,10-2,14.2c-1.4,4.3-3.1,7.5-5.2,9.8
			c-2.1,2.3-4.5,3.8-7.2,4.7c-2.7,0.8-6.1,1.3-10.2,1.3h-5.5v18.2H43.8z M35.8,117.8H38c5.1,0,8.4-1.4,9.9-4.1
			c1.5-2.7,2.2-6.1,2.2-10.2c0-3.4-0.5-6.3-1.5-8.8c-1-2.4-2.2-3.9-3.5-4.5c-1.3-0.6-3.5-0.8-6.5-0.8h-2.8V117.8z M70.2,167.6v-15.9
			h6.9V89.5h-6.9V73.6h50.7v29.8h-11V89.5H92.1v21.7h14.4V127H92.1v24.7h17.8v-14.1h11v29.9H70.2z M185.8,151.7v15.9h-17.5l-13-41.2
			h-6.6v25.3h7.2v15.9h-30.1v-15.9h7.9V89.5h-7.9V73.6h34.7c6.5,0,11.2,2.7,14.1,8.1c2.9,5.4,4.3,11.5,4.3,18.3
			c0,10.7-3.3,18.5-10,23.4l9.3,28.4H185.8z M148.7,111.4h5.1c6.3,0,9.5-3.7,9.5-11.1c0-3.6-0.7-6.4-2.2-8.2c-1.4-1.8-3.4-2.7-6-2.7
			h-6.5V111.4z M187.6,167.6v-15.9h8.7V89.5h-8.7V73.6h27.2c5.7,0,10.3,0.6,13.8,1.7c3.5,1.1,6.8,3.7,10,7.6
			c3.2,3.9,5.8,9.2,7.7,15.8c1.9,6.6,2.9,14,2.9,22c0,6.5-0.7,12.8-2,18.7s-3,10.7-5,14.3c-2,3.6-4.4,6.5-7.2,8.7
			c-2.8,2.1-5.3,3.5-7.7,4.2c-2.3,0.6-5.9,0.9-10.8,0.9H187.6z M211.2,151.7h3.6c4.4,0,7.8-0.9,10.4-2.8c2.5-1.8,4.6-5.1,6.1-9.8
			c1.5-4.7,2.3-10.8,2.3-18.3c0-7.2-0.8-13.2-2.3-18.2c-1.6-5-3.7-8.4-6.3-10.3c-2.7-1.9-6-2.8-10.1-2.8h-3.6V151.7z M255,89.5V73.6
			h27.4v15.9h-5.7V132c0,5.7,0.1,9.8,0.4,12.3c0.3,2.5,1.1,4.6,2.3,6.2c1.2,1.6,2.8,2.4,4.7,2.4c2,0,3.6-0.8,4.9-2.3
			c1.3-1.5,2.1-3.4,2.5-5.7c0.4-2.3,0.6-7,0.6-14.1V89.5h-5.6V73.6h22.9v15.9h-7v47c0,6.4-0.2,11-0.6,14c-0.4,2.9-1.4,5.8-2.9,8.6
			c-1.5,2.9-3.6,5.2-6.5,7s-6.1,2.7-9.7,2.7c-4.2,0-7.9-1-10.9-2.9c-3-2-5.2-4.6-6.7-7.8s-2.4-6.5-2.8-9.7
			c-0.4-3.2-0.6-8.6-0.6-16.4V89.5H255z M362.5,73.6h9.7v33.1h-9.7c-2.8-11.9-7.5-17.8-14.3-17.8c-5.6,0-9.9,3.1-12.8,9.4
			s-4.3,13.8-4.3,22.5c0,9.1,1.5,16.5,4.6,22.2c3,5.7,6.9,8.5,11.6,8.5c3.9,0,7.2-2.1,10.1-6.4c2.9-4.3,4.9-10.2,5.9-17.8l11.3,8.8
			c-4.3,21.8-13.8,32.7-28.4,32.7c-10.3,0-18.1-4.5-23.4-13.6c-5.2-9.1-7.9-20.6-7.9-34.5c0-9.9,1.4-18.6,4.1-26
			c2.7-7.4,6.4-13,11-16.8c4.6-3.8,9.7-5.6,15.2-5.6c6.9,0,12.6,2.9,17.2,8.8V73.6z M413,72.1c9.9,0,17.7,4.7,23.4,14.1
			c5.7,9.4,8.5,20.8,8.5,34.3c0,13.5-2.9,24.9-8.6,34.3c-5.7,9.3-13.5,14-23.4,14c-10.3,0-18.2-4.8-23.7-14.4
			c-5.5-9.6-8.3-20.9-8.3-33.9c0-13.4,2.8-24.8,8.5-34.2C395.2,76.8,403,72.1,413,72.1z M413,89.3c-4.4,0-8.2,2.7-11.2,8.1
			c-3.1,5.4-4.6,13.3-4.6,23.8c0,9.2,1.5,16.6,4.5,22.2c3,5.5,6.8,8.3,11.3,8.3c4.4,0,8.2-2.7,11.2-8.1c3.1-5.4,4.6-13.3,4.6-23.5
			c0-9.1-1.5-16.6-4.4-22.2C421.5,92.1,417.7,89.3,413,89.3z"/>
	</g>
	<g>
		<g>
			<polygon class="st2" points="10,245.5 65,244.9 120,244.6 230,244.3 340,244.6 395,244.9 450,245.5 395,246.1 340,246.4 
				230,246.7 120,246.4 65,246.1 			"/>
		</g>
	</g>
	<g>
		<path class="st1" d="M99.5,255.9h2.9l4.1,15.4h-2.6l-1-3.9h-4.5l-1,3.9H95L99.5,255.9z M102.4,265.4l-1.8-7l-1.7,7H102.4z"/>
		<path class="st1" d="M121.5,255.9h2.5v13.2h5.4v2.2h-8V255.9z"/>
		<path class="st1" d="M135.6,255.9h2.5v15.4h-2.5V255.9z"/>
		<path class="st1" d="M145.6,255.9h3l5.1,11.1v-11.1h2.1v15.4h-2.4l-5.7-12.3v12.3h-2.1V255.9z"/>
		<path class="st3" d="M173,272.6v1.9c-0.5,0.2-1,0.3-1.5,0.3c-2.1,0-3.2-1.1-3.2-3.3c-1.7,0-3.1-0.6-4.1-1.9c-1-1.3-1.5-3.3-1.5-6
			c0-2.6,0.5-4.6,1.4-5.9c0.9-1.3,2.3-2,4.1-2c1.8,0,3.2,0.7,4.1,2c0.9,1.3,1.4,3.3,1.4,5.9c0,4.1-1.2,6.7-3.5,7.6
			c0,0.6,0.1,1,0.3,1.3c0.2,0.3,0.6,0.4,1.2,0.4C172.2,272.8,172.6,272.8,173,272.6z M171.2,263.6c0-1.3-0.1-2.4-0.3-3.3
			c-0.2-0.9-0.5-1.6-0.9-1.9c-0.4-0.4-0.9-0.6-1.6-0.6c-1,0-1.8,0.5-2.2,1.5c-0.4,1-0.6,2.5-0.6,4.3c0,1.9,0.2,3.3,0.6,4.3
			c0.4,1,1.2,1.5,2.2,1.5c1.1,0,1.8-0.5,2.2-1.6C171,266.9,171.2,265.4,171.2,263.6z"/>
		<path class="st1" d="M180.8,255.9h2.5v9.6c0,1.1,0.1,1.9,0.2,2.4s0.4,0.9,0.8,1.2s0.9,0.4,1.6,0.4c0.6,0,1.2-0.1,1.5-0.4
			s0.6-0.6,0.8-1s0.2-1.3,0.2-2.7v-9.5h2.3v9.4c0,1.5-0.1,2.7-0.3,3.5c-0.2,0.8-0.7,1.5-1.5,2c-0.8,0.5-1.8,0.8-3.1,0.8
			c-1,0-1.9-0.2-2.6-0.5c-0.7-0.3-1.3-0.9-1.7-1.6c-0.4-0.7-0.6-2.1-0.6-4V255.9z"/>
		<path class="st1" d="M198.1,255.9h8.8v2h-6.3v4.4h4.9v2.1h-4.9v4.8h6.4v2.1h-8.9V255.9z"/>
		<path class="st1" d="M222.5,259.3l-2.2,0.8c-0.3-0.8-0.6-1.4-1-1.8c-0.4-0.4-1-0.6-1.7-0.6c-0.7,0-1.2,0.2-1.6,0.6
			c-0.4,0.4-0.5,0.8-0.5,1.4c0,0.6,0.2,1,0.6,1.4c0.4,0.3,1.2,0.7,2.5,1.2c1,0.4,1.8,0.8,2.4,1.1c0.6,0.4,1,0.8,1.4,1.4
			s0.5,1.3,0.5,2.1c0,1.3-0.5,2.4-1.4,3.3s-2.2,1.4-3.8,1.4c-2.8,0-4.6-1.4-5.3-4.3l2.3-0.6c0.4,1.9,1.4,2.8,3.1,2.8
			c0.8,0,1.4-0.2,1.9-0.6c0.4-0.4,0.6-0.9,0.6-1.6c0-0.5-0.1-0.9-0.4-1.3c-0.3-0.4-1-0.8-2.2-1.3c-1.2-0.5-2.1-0.9-2.7-1.2
			s-1-0.8-1.4-1.4c-0.4-0.6-0.6-1.3-0.6-2.2c0-1.2,0.4-2.3,1.3-3.1c0.9-0.8,2-1.3,3.4-1.3C220.2,255.6,221.8,256.9,222.5,259.3z"/>
		<path class="st1" d="M228.2,255.9h9.4v2.2h-3.4v13.2h-2.5v-13.2h-3.4V255.9z"/>
		<path class="st1" d="M260,266.1l2.3,0.3c-0.5,3.4-2.2,5.1-5,5.1c-1.9,0-3.3-0.7-4.2-2.2c-0.9-1.4-1.4-3.4-1.4-5.8
			c0-2.6,0.5-4.6,1.5-6c1-1.4,2.4-2.1,4.2-2.1c2.8,0,4.5,1.8,5,5.3l-2.4,0.3c-0.3-2.3-1.1-3.5-2.6-3.5c-2,0-2.9,2-2.9,6.1
			c0,3.8,1,5.7,2.9,5.7c0.8,0,1.4-0.3,1.8-0.9C259.6,268,259.9,267.2,260,266.1z"/>
		<path class="st1" d="M279.7,263.6c0,2.6-0.5,4.6-1.4,6c-0.9,1.3-2.3,2-4.1,2c-1.8,0-3.2-0.7-4.1-2c-1-1.3-1.4-3.3-1.4-6
			c0-2.6,0.5-4.6,1.4-5.9c0.9-1.3,2.3-2,4.1-2c1.8,0,3.1,0.7,4.1,2C279.2,259,279.7,261,279.7,263.6z M277,263.6
			c0-1.8-0.2-3.3-0.6-4.3c-0.4-1-1.2-1.6-2.2-1.6s-1.8,0.5-2.2,1.6c-0.4,1.1-0.6,2.5-0.6,4.3c0,1.8,0.2,3.2,0.6,4.3
			c0.4,1.1,1.2,1.6,2.3,1.6c1,0,1.8-0.5,2.2-1.6C276.8,266.9,277,265.5,277,263.6z"/>
		<path class="st1" d="M286.7,255.9h3.8l3.1,11.1l3.2-11.1h3.6v15.4h-2.4v-13.1l-3.7,13.1h-1.9l-3.6-13.1v13.1h-2.1V255.9z"/>
		<path class="st1" d="M307.9,255.9h3.8c1.2,0,2.2,0.1,3,0.3c0.8,0.2,1.4,0.7,1.9,1.5c0.5,0.8,0.8,1.7,0.8,2.8c0,1-0.2,1.9-0.6,2.6
			s-1,1.3-1.7,1.6c-0.7,0.3-1.8,0.5-3.3,0.5h-1.3v6h-2.5V255.9z M310.4,257.9v5.4h1.3c1.1,0,1.9-0.2,2.3-0.6
			c0.4-0.4,0.6-1.1,0.6-2.1c0-0.7-0.1-1.3-0.4-1.7c-0.3-0.4-0.6-0.7-0.9-0.8c-0.3-0.1-0.9-0.2-1.6-0.2H310.4z"/>
		<path class="st1" d="M326.2,255.9h2.9l4.1,15.4h-2.6l-1-3.9h-4.5l-1,3.9h-2.4L326.2,255.9z M329.1,265.4l-1.8-7l-1.7,7H329.1z"/>
		<path class="st1" d="M339.3,255.9h3l5.1,11.1v-11.1h2.1v15.4h-2.4l-5.7-12.3v12.3h-2.1V255.9z"/>
		<path class="st1" d="M354.7,255.9h2.8l2.8,6.4l2.9-6.4h2.4l-4.3,8.9v6.5h-2.5v-6.5L354.7,255.9z"/>
	</g>
</g>
</svg>
